<?xml version="1.0" encoding="utf-8"?>
<!-- Generator: Adobe Illustrator 21.1.0, SVG Export Plug-In . SVG Version: 6.00 Build 0)  -->
<svg version="1.1"
	 id="svg4060" inkscape:version="0.47 r22583" sodipodi:docname="mill_probe_corner.svg" xmlns:cc="http://creativecommons.org/ns#" xmlns:dc="http://purl.org/dc/elements/1.1/" xmlns:inkscape="http://www.inkscape.org/namespaces/inkscape" xmlns:rdf="http://www.w3.org/1999/02/22-rdf-syntax-ns#" xmlns:sodipodi="http://sodipodi.sourceforge.net/DTD/sodipodi-0.dtd" xmlns:svg="http://www.w3.org/2000/svg"
	 xmlns="http://www.w3.org/2000/svg" xmlns:xlink="http://www.w3.org/1999/xlink" x="0px" y="0px" viewBox="0 0 98 94"
	 style="enable-background:new 0 0 98 94;" xml:space="preserve">
<style type="text/css">
	.st0{display:none;}
	.st1{display:inline;fill:#6A6A6A;}
	.st2{fill:#C03050;stroke:#FFFFFF;stroke-width:1.4;}
	.st3{fill:#FFFFFF;stroke:#FFFFFF;}
	.st4{fill:none;stroke:#FFFFFF;}
	.st5{fill:#FFFFFF;stroke:#FFFFFF;stroke-width:1;}
	.st6{fill:#55807C;stroke:#FFFFFF;stroke-width:1.4;stroke-linecap:round;stroke-linejoin:round;}
</style>
<defs>
	
	
		<inkscape:perspective  id="perspective4068" inkscape:persp3d-origin="372.04724 : 350.78739 : 1" inkscape:vp_x="0 : 526.18109 : 1" inkscape:vp_y="0 : 1000 : 0" inkscape:vp_z="744.09448 : 526.18109 : 1" sodipodi:type="inkscape:persp3d">
		</inkscape:perspective>
	
		<inkscape:perspective  id="perspective4049" inkscape:persp3d-origin="0.5 : 0.33333333 : 1" inkscape:vp_x="0 : 0.5 : 1" inkscape:vp_y="0 : 1000 : 0" inkscape:vp_z="1 : 0.5 : 1" sodipodi:type="inkscape:persp3d">
		</inkscape:perspective>
	
		<inkscape:perspective  id="perspective4122" inkscape:persp3d-origin="0.5 : 0.33333333 : 1" inkscape:vp_x="0 : 0.5 : 1" inkscape:vp_y="0 : 1000 : 0" inkscape:vp_z="1 : 0.5 : 1" sodipodi:type="inkscape:persp3d">
		</inkscape:perspective>
	
		<inkscape:perspective  id="perspective4282" inkscape:persp3d-origin="0.5 : 0.33333333 : 1" inkscape:vp_x="0 : 0.5 : 1" inkscape:vp_y="0 : 1000 : 0" inkscape:vp_z="1 : 0.5 : 1" sodipodi:type="inkscape:persp3d">
		</inkscape:perspective>
	
		<inkscape:perspective  id="perspective4282-9" inkscape:persp3d-origin="0.5 : 0.33333333 : 1" inkscape:vp_x="0 : 0.5 : 1" inkscape:vp_y="0 : 1000 : 0" inkscape:vp_z="1 : 0.5 : 1" sodipodi:type="inkscape:persp3d">
		</inkscape:perspective>
	
		<inkscape:perspective  id="perspective4282-3" inkscape:persp3d-origin="0.5 : 0.33333333 : 1" inkscape:vp_x="0 : 0.5 : 1" inkscape:vp_y="0 : 1000 : 0" inkscape:vp_z="1 : 0.5 : 1" sodipodi:type="inkscape:persp3d">
		</inkscape:perspective>
	
		<inkscape:perspective  id="perspective6911" inkscape:persp3d-origin="0.5 : 0.33333333 : 1" inkscape:vp_x="0 : 0.5 : 1" inkscape:vp_y="0 : 1000 : 0" inkscape:vp_z="1 : 0.5 : 1" sodipodi:type="inkscape:persp3d">
		</inkscape:perspective>
	
		<inkscape:perspective  id="perspective6933" inkscape:persp3d-origin="0.5 : 0.33333333 : 1" inkscape:vp_x="0 : 0.5 : 1" inkscape:vp_y="0 : 1000 : 0" inkscape:vp_z="1 : 0.5 : 1" sodipodi:type="inkscape:persp3d">
		</inkscape:perspective>
	
		<inkscape:perspective  id="perspective6967" inkscape:persp3d-origin="0.5 : 0.33333333 : 1" inkscape:vp_x="0 : 0.5 : 1" inkscape:vp_y="0 : 1000 : 0" inkscape:vp_z="1 : 0.5 : 1" sodipodi:type="inkscape:persp3d">
		</inkscape:perspective>
	
		<inkscape:perspective  id="perspective6992" inkscape:persp3d-origin="0.5 : 0.33333333 : 1" inkscape:vp_x="0 : 0.5 : 1" inkscape:vp_y="0 : 1000 : 0" inkscape:vp_z="1 : 0.5 : 1" sodipodi:type="inkscape:persp3d">
		</inkscape:perspective>
	
		<inkscape:perspective  id="perspective7019" inkscape:persp3d-origin="0.5 : 0.33333333 : 1" inkscape:vp_x="0 : 0.5 : 1" inkscape:vp_y="0 : 1000 : 0" inkscape:vp_z="1 : 0.5 : 1" sodipodi:type="inkscape:persp3d">
		</inkscape:perspective>
	
		<inkscape:perspective  id="perspective7050" inkscape:persp3d-origin="0.5 : 0.33333333 : 1" inkscape:vp_x="0 : 0.5 : 1" inkscape:vp_y="0 : 1000 : 0" inkscape:vp_z="1 : 0.5 : 1" sodipodi:type="inkscape:persp3d">
		</inkscape:perspective>
	
		<inkscape:perspective  id="perspective7083" inkscape:persp3d-origin="0.5 : 0.33333333 : 1" inkscape:vp_x="0 : 0.5 : 1" inkscape:vp_y="0 : 1000 : 0" inkscape:vp_z="1 : 0.5 : 1" sodipodi:type="inkscape:persp3d">
		</inkscape:perspective>
	
		<inkscape:perspective  id="perspective7083-5" inkscape:persp3d-origin="0.5 : 0.33333333 : 1" inkscape:vp_x="0 : 0.5 : 1" inkscape:vp_y="0 : 1000 : 0" inkscape:vp_z="1 : 0.5 : 1" sodipodi:type="inkscape:persp3d">
		</inkscape:perspective>
</defs>
<sodipodi:namedview  bordercolor="#666666" borderopacity="1.0" id="base" inkscape:current-layer="layer2" inkscape:cx="48.829076" inkscape:cy="52.641189" inkscape:document-units="px" inkscape:pageopacity="0.0" inkscape:pageshadow="2" inkscape:window-height="820" inkscape:window-maximized="0" inkscape:window-width="1387" inkscape:window-x="114" inkscape:window-y="102" inkscape:zoom="5.850025" pagecolor="#ffffff" showgrid="true">
	
		<inkscape:grid  dotted="true" empspacing="4" enabled="true" id="grid4091" snapvisiblegridlinesonly="true" spacingx="2px" spacingy="2px" type="xygrid" visible="true">
		</inkscape:grid>
</sodipodi:namedview>
<g id="layer2" transform="translate(-344,-722.36218)" inkscape:groupmode="layer" inkscape:label="Background" class="st0">
	
		<rect id="rect3193-3" x="344" y="722.4" inkscape:export-filename="/home/kwallace/tormach_linuxcnc/release/images/probe_corner.png" inkscape:export-xdpi="100" inkscape:export-ydpi="100" class="st1" width="98" height="94">
	</rect>
</g>
<g id="layer1" transform="translate(-344,-722.36218)" inkscape:groupmode="layer" inkscape:label="Layer 1">
	<path id="path3969-9" sodipodi:cx="1560" sodipodi:cy="431" sodipodi:rx="8" sodipodi:ry="8" sodipodi:type="arc" class="st2" d="
		M363.2,749.6c-4.4,0-8-3.6-8-8s3.6-8,8-8s8,3.6,8,8S367.7,749.6,363.2,749.6z"/>
	<path id="path5167-8-0-4-7-4-7-1" sodipodi:nodetypes="cccc" class="st3" d="M363.2,741.6l12-2v4L363.2,741.6z"/>
	<path id="path5167-8-0-4-7-4-7-2-86" sodipodi:nodetypes="cccc" class="st3" d="M425.2,741.6l-12,2v-4L425.2,741.6z"/>
	<path id="path4037-1" class="st4" d="M363.2,725.6v32l0,0"/>
	<path id="path4039-7" class="st3" d="M425.2,741.6h-76"/>
	<g id="g7006" transform="translate(18,2.6171874e-6)">
		<path id="path5167-8-0-4-7-4-7-0" sodipodi:nodetypes="cccc" class="st3" d="M345.2,803.6l12-2v4L345.2,803.6z"/>
		<path id="path5167-8-0-4-7-4-7-2-5" sodipodi:nodetypes="cccc" class="st3" d="M377.2,803.6l-12,2v-4L377.2,803.6z"/>
		<path id="path4039-5" class="st3" d="M377,803.6h-32"/>
	</g>
	<path id="path5167-8-0-4-7-4-7-0-7" sodipodi:nodetypes="cccc" class="st3" d="M425.2,741.6l2,12h-4L425.2,741.6z"/>
	<path id="path5167-8-0-4-7-4-7-2-5-3" sodipodi:nodetypes="cccc" class="st3" d="M425.2,773.6l-2-12h4L425.2,773.6z"/>
	<path id="path4039-5-8" class="st3" d="M425.2,773.3v-32"/>
	<path id="path5167-8-0-4-7-4-7-1-2" sodipodi:nodetypes="cccc" class="st3" d="M363.2,741.6l2,12h-4L363.2,741.6z"/>
	<path id="path5167-8-0-4-7-4-7-2-86-7" sodipodi:nodetypes="cccc" class="st3" d="M363.2,803.6l-2-12h4L363.2,803.6z"/>
	<path id="path4039-7-7" class="st5" d="M363.2,803.6v-62"/>
	<path id="path7880" class="st6" d="M415,773.6l19.8,0l0,1.4c0,1-0.1,1.4-0.3,1.7c-0.2,0.2-0.3,0.4-0.3,0.6c0,0.7-2,3.4-2.8,3.7
		c-0.2,0.1-0.3,0.2-0.3,0.3c0,0.3-1.6,1.1-3.4,1.6c-0.8,0.2-1.9,0.7-2.4,1c-0.8,0.5-0.9,0.8-1.6,2.2c-0.4,0.9-0.7,1.6-0.8,1.7
		c-0.1,0-0.3,0.7-0.5,1.4c-0.2,0.7-0.6,1.7-0.7,2.2c-0.2,0.5-0.4,1.3-0.5,1.9c-0.2,1.2-0.5,2.3-1.1,4c-0.2,0.7-0.5,1.5-0.6,1.8
		c-0.4,1.2-1,2.2-1.5,2.4c-0.3,0.1-1.6,0.2-3,0.3c-2.3,0.1-2.6,0.1-3.6,0.5c-1.6,0.7-2.5,1.4-3.6,2.8c-0.5,0.6-1,1.2-1.1,1.2
		s-0.4,0.3-0.6,0.7c-0.2,0.4-0.9,1-1.5,1.4c-0.6,0.4-1.3,1-1.5,1.3c-1.4,1.7-1.9,2.2-2.2,2.3c-0.2,0.1-0.6,0.3-0.8,0.5
		s-0.7,0.5-1.1,0.5c-0.3,0.1-0.7,0.2-0.9,0.3c-0.4,0.2-1.9,0.5-2.4,0.5h-0.4v-20v-20L415,773.6L415,773.6z"/>
</g>
</svg>
